<svg xmlns="http://www.w3.org/2000/svg" width="147.79" height="147.79" viewBox="0 0 147.79 147.79"><ellipse cx="73.895" cy="73.895" rx="73.895" ry="73.895" transform="translate(0 0)" fill="#fff"/><g transform="translate(36.445 37.077)"><rect width="5.689" height="2.008" transform="translate(11.944 65.68)"/><path d="M-.15-.15h5.99V2.158H-.15Zm5.689.3H.15V1.858H5.539Z" transform="translate(11.944 65.68)"/><rect width="5.689" height="2.008" transform="translate(23.223 65.68)"/><path d="M-.15-.15h5.99V2.158H-.15Zm5.689.3H.15V1.858H5.539Z" transform="translate(23.223 65.68)"/><rect width="5.689" height="2.008" transform="translate(34.503 65.68)"/><path d="M-.15-.15h5.99V2.158H-.15Zm5.689.3H.15V1.858H5.539Z" transform="translate(34.503 65.68)"/><rect width="5.689" height="2.008" transform="translate(45.783 65.68)"/><path d="M-.15-.15h5.99V2.158H-.15Zm5.689.3H.15V1.858H5.539Z" transform="translate(45.783 65.68)"/><rect width="5.689" height="2.008" transform="translate(57.062 65.68)"/><path d="M-.15-.15h5.99V2.158H-.15Zm5.689.3H.15V1.858H5.539Z" transform="translate(57.062 65.68)"/><rect width="5.689" height="2.008" transform="translate(11.944 70.03)"/><path d="M-.15-.15h5.99V2.158H-.15Zm5.689.3H.15V1.858H5.539Z" transform="translate(11.944 70.03)"/><rect width="5.689" height="2.008" transform="translate(23.223 70.03)"/><path d="M-.15-.15h5.99V2.158H-.15Zm5.689.3H.15V1.858H5.539Z" transform="translate(23.223 70.03)"/><rect width="5.689" height="2.008" transform="translate(34.503 70.03)"/><path d="M-.15-.15h5.99V2.158H-.15Zm5.689.3H.15V1.858H5.539Z" transform="translate(34.503 70.03)"/><rect width="5.689" height="2.008" transform="translate(45.783 70.03)"/><path d="M-.15-.15h5.99V2.158H-.15Zm5.689.3H.15V1.858H5.539Z" transform="translate(45.783 70.03)"/><rect width="5.689" height="2.008" transform="translate(57.062 70.03)"/><path d="M-.15-.15h5.99V2.158H-.15Zm5.689.3H.15V1.858H5.539Z" transform="translate(57.062 70.03)"/><rect width="5.689" height="2.008" transform="translate(17.583 67.689)"/><path d="M-.15-.15h5.99V2.158H-.15Zm5.689.3H.15V1.858H5.539Z" transform="translate(17.583 67.689)"/><rect width="5.689" height="2.008" transform="translate(28.863 67.689)"/><path d="M-.15-.15h5.99V2.158H-.15Zm5.689.3H.15V1.858H5.539Z" transform="translate(28.863 67.689)"/><rect width="5.689" height="2.008" transform="translate(40.143 67.689)"/><path d="M-.15-.15h5.99V2.158H-.15Zm5.689.3H.15V1.858H5.539Z" transform="translate(40.143 67.689)"/><rect width="5.689" height="2.008" transform="translate(51.423 67.689)"/><path d="M-.15-.15h5.99V2.158H-.15Zm5.689.3H.15V1.858H5.539Z" transform="translate(51.423 67.689)"/><path d="M72.928,28.17a25.277,25.277,0,0,1-6.563-3L69.238,20.2l-.112-.393c-.085-.309-2.226-7.773-13.859-14.76l2.31-4.013L55.83.024,36.986,32.52,18.141.024l-1.746,1.01L18.7,5.047C7.071,12.035,4.93,19.5,4.846,19.808l-.113.393,2.873,4.967a25.281,25.281,0,0,1-6.563,3L-.2,28.535,12.113,49.777l.761-.225A27.237,27.237,0,0,0,29.183,36.785l.253-.477-3.718-6.37a43.476,43.476,0,0,1,5.267-3.7L35.8,34.54,22,58.336l1.746,1.01L36.986,36.56,50.2,59.346l1.746-1.01-13.8-23.8,4.817-8.306a43.476,43.476,0,0,1,5.267,3.7l-3.69,6.342.253.477A27.133,27.133,0,0,0,61.1,49.525l.76.225,12.31-21.243ZM13.071,47.392,2.846,29.741a27.661,27.661,0,0,0,5.8-2.806L16.733,40.91l.873-.505c4.282-2.469,7.267-3.031,8.929-3.143A26.12,26.12,0,0,1,13.071,47.392Zm13.38-12.151a20.225,20.225,0,0,0-7.211,2.02,26.557,26.557,0,0,1,4.929-5.977Zm-9.493,1.992L6.93,19.976c.591-1.543,3.38-7.492,12.788-13.161L29.972,24.522C21.831,29.377,18.338,34.512,16.958,37.234ZM54.253,6.787c9.408,5.668,12.2,11.646,12.788,13.161l-10,17.286c-1.38-2.75-4.873-7.857-13.042-12.768Zm.479,30.5a19.637,19.637,0,0,0-7.211-2.02L49.8,31.313A27.369,27.369,0,0,1,54.731,37.29Zm6.169,10.1a25.973,25.973,0,0,1-13.464-10.13c1.662.084,4.648.673,8.929,3.143l.873.505,8.084-13.975a27.657,27.657,0,0,0,5.8,2.806Z" transform="translate(0.196 -0.024)"/><path d="M18.2-.181l18.79,32.4,18.79-32.4L57.781.98,55.47,4.995c11.554,6.984,13.713,14.457,13.8,14.773l.129.452-2.833,4.9a25.1,25.1,0,0,0,6.4,2.908l1.426.387L61.928,49.927l-.873-.258a27.594,27.594,0,0,1-7.4-3.331,27.881,27.881,0,0,1-5.05-4.167,24,24,0,0,1-3.955-5.347l-.291-.548,3.668-6.3a43.477,43.477,0,0,0-5.02-3.532l-4.7,8.1L52.148,58.391l-2.006,1.16L36.985,36.859,23.8,59.551,21.8,58.391,35.629,34.54l-4.7-8.1a43.475,43.475,0,0,0-5.02,3.532l3.7,6.332-.31.583A24.89,24.89,0,0,1,25.2,42.353a27.893,27.893,0,0,1-5.015,4.088A27.54,27.54,0,0,1,12.915,49.7l-.872.257L-.422,28.445,1,28.026a25.1,25.1,0,0,0,6.4-2.908l-2.833-4.9.13-.454c.086-.314,2.242-7.786,13.8-14.772L16.19.98Zm39.176,1.27L55.885.229l-18.9,32.589L18.087.229l-1.487.86L18.908,5.1l-.126.076C7.217,12.122,5.076,19.535,4.991,19.847l-.1.333,2.913,5.036-.121.077a25.455,25.455,0,0,1-6.6,3.02l-1.055.311L12.184,49.6l.647-.191a27.03,27.03,0,0,0,16.2-12.662l.231-.435L25.524,29.9l.1-.081a43.778,43.778,0,0,1,5.286-3.717l.131-.078,4.937,8.513L22.205,58.281l1.487.86,13.294-22.88,13.265,22.88,1.487-.86L37.967,34.54,42.9,26.027l.131.078a43.778,43.778,0,0,1,5.286,3.717l.1.081-3.712,6.38.214.4a23.674,23.674,0,0,0,3.905,5.277,27.068,27.068,0,0,0,12.312,7.417l.649.192L73.94,28.6l-1.051-.286a25.452,25.452,0,0,1-6.6-3.021l-.121-.077,2.913-5.036-.095-.332c-.086-.314-2.23-7.729-13.792-14.673L55.063,5.1ZM54.2,6.58l.131.079c9.325,5.618,12.193,11.55,12.85,13.235l.026.067L57.032,37.55l-.125-.248c-1.315-2.621-4.752-7.757-12.985-12.707l-.127-.076ZM66.875,19.936c-.693-1.739-3.548-7.468-12.569-12.941L44.2,24.414c7.959,4.815,11.436,9.8,12.846,12.507ZM19.772,6.608l10.4,17.967-.127.076C21.889,29.517,18.429,34.666,17.092,37.3l-.125.246L6.765,19.989l.026-.067c.642-1.675,3.467-7.582,12.851-13.236Zm10,17.861L19.665,7.023a36.8,36.8,0,0,0-9.531,8.015A19.262,19.262,0,0,0,7.1,19.963L16.95,36.922C18.38,34.207,21.878,29.206,29.768,24.469ZM8.7,26.725,16.787,40.7l.743-.43a21.8,21.8,0,0,1,8.994-3.163l.309-.021-.175.255a26.961,26.961,0,0,1-4.56,5.115,25.43,25.43,0,0,1-8.982,5.074L13,47.572,2.625,29.658,2.8,29.6a27.364,27.364,0,0,0,5.771-2.791Zm7.978,14.389L8.6,27.145a27.651,27.651,0,0,1-5.529,2.679L13.14,47.212a26.037,26.037,0,0,0,13.091-9.775,22.04,22.04,0,0,0-8.55,3.1ZM65.271,26.725l.132.083A27.36,27.36,0,0,0,71.174,29.6l.173.059L60.97,47.572l-.115-.037A26.1,26.1,0,0,1,47.312,37.346l-.169-.249.3.015c1.757.089,4.744.71,9,3.163l.744.43Zm5.633,3.1a27.646,27.646,0,0,1-5.529-2.679l-8.082,13.97-1-.58a20.972,20.972,0,0,0-8.556-3.1,25.793,25.793,0,0,0,13.1,9.78Zm-46.7,1.223,2.5,4.331-.244.013A20.044,20.044,0,0,0,19.3,37.4l-.432.2.24-.41a26.8,26.8,0,0,1,4.957-6.011Zm2,4.061-2.067-3.584a26.871,26.871,0,0,0-4.519,5.405A20.317,20.317,0,0,1,26.2,35.107Zm23.566-4.034.138.13a27.381,27.381,0,0,1,4.956,6.011l.24.41-.432-.2a19.222,19.222,0,0,0-7.154-2.007l-.249-.009Zm4.589,5.882a27.72,27.72,0,0,0-4.518-5.4l-2.064,3.579A19.536,19.536,0,0,1,54.355,36.956Z" transform="translate(0.196 -0.024)"/></g></svg>